<?xml version="1.0" standalone="no"?>
<!DOCTYPE svg PUBLIC "-//W3C//DTD SVG 20010904//EN"
 "http://www.w3.org/TR/2001/REC-SVG-20010904/DTD/svg10.dtd">
<svg version="1.0" xmlns="http://www.w3.org/2000/svg"
 width="500.000000pt" height="500.000000pt" viewBox="0 0 500.000000 500.000000"
 preserveAspectRatio="xMidYMid meet">

<g transform="translate(0.000000,500.000000) scale(0.100000,-0.100000)"
fill="#000000" stroke="none">
<path d="M1186 3208 c-10 -5 -23 -23 -30 -40 -13 -30 -7 -65 21 -112 11 -19 8
-163 -4 -196 -3 -8 -7 -26 -8 -40 -15 -124 -25 -150 -66 -174 -30 -17 -31 -17
-52 1 -12 11 -43 30 -68 42 -26 12 -54 30 -64 41 -10 11 -23 20 -29 20 -6 0
-40 20 -76 44 -36 25 -102 63 -147 86 -45 22 -85 45 -88 51 -9 13 -41 11 -53
-3 -29 -37 -23 -53 43 -121 35 -37 87 -78 114 -92 27 -15 55 -33 62 -41 6 -8
17 -14 23 -14 24 -1 107 -48 96 -55 -6 -4 -48 -2 -93 4 -67 10 -100 9 -182 -4
-55 -8 -129 -15 -165 -15 -38 0 -71 -5 -78 -12 -17 -17 -15 -52 6 -71 43 -38
208 -67 342 -59 l75 4 -45 -29 c-25 -16 -82 -41 -128 -56 -122 -40 -125 -42
-119 -87 6 -50 106 -150 149 -150 40 0 220 89 310 153 89 65 113 78 122 70 11
-11 6 -49 -9 -69 -8 -10 -15 -29 -15 -40 0 -12 -7 -27 -15 -34 -8 -7 -15 -22
-15 -33 0 -11 -7 -28 -16 -38 -20 -22 -25 -125 -8 -160 7 -14 40 -50 73 -80
59 -52 89 -67 84 -42 -4 19 46 204 59 220 11 14 17 41 37 167 6 32 15 64 20
69 6 6 11 19 11 29 0 19 15 24 25 9 9 -15 92 -59 127 -66 18 -4 44 -15 58 -25
37 -25 225 -130 234 -130 4 0 24 -11 44 -25 34 -23 72 -33 72 -19 0 4 -8 21
-19 38 -10 17 -26 55 -36 83 -15 49 -55 93 -82 93 -6 0 -26 18 -47 40 -27 29
-45 40 -66 40 -34 0 -180 67 -180 82 0 7 28 9 89 4 52 -4 99 -2 115 4 14 5 83
10 154 11 70 0 135 3 145 6 24 6 21 43 -8 83 -13 18 -22 37 -19 41 7 12 3 12
-206 9 -169 -2 -183 -1 -171 14 7 9 17 16 22 16 5 0 32 16 59 35 27 19 55 35
61 35 6 0 28 14 49 30 21 17 42 30 46 30 5 0 20 9 34 20 14 11 33 20 43 20 24
0 21 14 -10 62 -29 43 -30 45 -56 93 -18 34 -73 48 -83 21 -3 -8 -18 -18 -33
-21 -16 -3 -41 -19 -56 -35 -16 -17 -37 -30 -47 -30 -28 0 -73 -26 -96 -55
-22 -27 -57 -33 -65 -11 -3 8 -3 58 -1 110 5 84 4 96 -11 96 -9 0 -21 13 -26
30 -6 17 -14 30 -18 30 -5 0 -16 17 -25 38 -21 47 -63 75 -90 60z"/>
<path d="M2100 2515 l0 -515 100 0 100 0 0 515 0 515 -100 0 -100 0 0 -515z"/>
<path d="M2515 3018 c-3 -7 -4 -238 -3 -513 l3 -500 98 -3 97 -3 0 383 c0 227
4 378 9 373 5 -6 73 -136 152 -290 78 -154 164 -320 190 -370 l47 -90 126 -3
126 -3 0 516 0 515 -100 0 -100 0 -2 -380 -3 -381 -58 113 c-32 62 -119 233
-194 381 l-136 267 -124 0 c-90 0 -125 -3 -128 -12z"/>
<path d="M3480 2950 l0 -80 145 0 145 0 0 -435 0 -435 105 0 105 0 0 435 0
435 145 0 145 0 0 80 0 80 -395 0 -395 0 0 -80z"/>
<path d="M4390 2515 l0 -515 100 0 100 0 0 515 0 515 -100 0 -100 0 0 -515z"/>
</g>
</svg>
